<svg id="visual" viewBox="0 0 900 600" width="900" height="600" xmlns="http://www.w3.org/2000/svg"
    xmlns:xlink="http://www.w3.org/1999/xlink" version="1.1">
    <g>
        <g transform="translate(392 12)">
            <path
                d="M78.6 -43.5C93.4 -19.8 91 15.7 75 43.2C59.1 70.7 29.5 90.3 -1.5 91.1C-32.5 92 -65 74.2 -79.3 47.6C-93.5 21.1 -89.5 -14.2 -73.3 -38.7C-57 -63.2 -28.5 -77.1 1.7 -78.1C31.9 -79.1 63.9 -67.2 78.6 -43.5Z"
                stroke="#EB5B00" fill="none" stroke-width="20"></path>
        </g>
        <g transform="translate(610 196)">
            <path
                d="M66.7 -40.9C80.7 -14.3 82.2 17 69.1 40.5C55.9 64 27.9 79.6 0.3 79.5C-27.3 79.3 -54.5 63.2 -69.9 38.5C-85.3 13.7 -88.7 -19.7 -75.1 -46.1C-61.5 -72.5 -30.7 -91.9 -2.2 -90.6C26.4 -89.4 52.7 -67.5 66.7 -40.9Z"
                stroke="#EB5B00" fill="none" stroke-width="20"></path>
        </g>
        <g transform="translate(504 597)">
            <path
                d="M78.3 -43.9C94.1 -17.7 94.6 18.6 79 46.2C63.4 73.8 31.7 92.8 0.2 92.7C-31.4 92.6 -62.7 73.5 -77.5 46.4C-92.2 19.2 -90.2 -15.9 -74.5 -41.9C-58.8 -68 -29.4 -85.1 0.9 -85.6C31.2 -86.1 62.4 -70.1 78.3 -43.9Z"
                stroke="#EB5B00" fill="none" stroke-width="20"></path>
        </g>
        <g transform="translate(171 353)">
            <path
                d="M49 -26.4C60.2 -9 63.5 14.8 54 31.4C44.5 48 22.3 57.5 -0.1 57.5C-22.5 57.6 -44.9 48.3 -54.3 31.7C-63.7 15.1 -60 -8.7 -48.8 -26.2C-37.5 -43.6 -18.8 -54.7 0.1 -54.8C18.9 -54.8 37.9 -43.8 49 -26.4Z"
                stroke="#EB5B00" fill="none" stroke-width="20"></path>
        </g>
        <g transform="translate(71 571)">
            <path
                d="M49.6 -30.3C59.1 -12.3 57.9 10.3 47.9 27.9C37.9 45.6 18.9 58.3 -2.2 59.6C-23.3 60.9 -46.6 50.6 -57.9 32.2C-69.1 13.9 -68.4 -12.6 -56.8 -31.9C-45.1 -51.3 -22.6 -63.5 -1.2 -62.7C20.1 -62 40.2 -48.4 49.6 -30.3Z"
                stroke="#EB5B00" fill="none" stroke-width="20"></path>
        </g>
        <g transform="translate(843 105)">
            <path
                d="M41.6 -26.2C49 -11.4 46.5 7 37.9 20.3C29.3 33.6 14.6 41.8 0.1 41.8C-14.5 41.7 -29 33.4 -37.9 19.9C-46.9 6.4 -50.3 -12.3 -43 -27.1C-35.8 -42 -17.9 -53 -0.4 -52.8C17.2 -52.5 34.3 -41.1 41.6 -26.2Z"
                stroke="#EB5B00" fill="none" stroke-width="20"></path>
        </g>
        <g transform="translate(848 435)">
            <path
                d="M70.4 -40C83.8 -17.4 82.1 14.5 67.9 38.5C53.6 62.6 26.8 78.8 1.7 77.8C-23.3 76.8 -46.7 58.6 -59.5 35.4C-72.2 12.2 -74.4 -16 -62.8 -37.6C-51.1 -59.2 -25.5 -74.2 1.5 -75C28.5 -75.9 57 -62.6 70.4 -40Z"
                stroke="#EB5B00" fill="none" stroke-width="20"></path>
        </g>
        <g transform="translate(18 144)">
            <path
                d="M64.4 -39.9C76.1 -17.1 72.9 11.6 59.6 34.9C46.4 58.3 23.2 76.3 -0.4 76.5C-24 76.7 -48 59.1 -59.6 36.7C-71.2 14.3 -70.3 -12.9 -58.3 -35.9C-46.3 -59 -23.2 -77.8 1.6 -78.8C26.4 -79.7 52.8 -62.7 64.4 -39.9Z"
                stroke="#EB5B00" fill="none" stroke-width="20"></path>
        </g>
    </g>
</svg>