<?xml version="1.0" standalone="no"?>
<!DOCTYPE svg PUBLIC "-//W3C//DTD SVG 20010904//EN"
 "http://www.w3.org/TR/2001/REC-SVG-20010904/DTD/svg10.dtd">
<svg version="1.0" xmlns="http://www.w3.org/2000/svg"
 width="500.000000pt" height="500.000000pt" viewBox="0 0 500.000000 500.000000"
 preserveAspectRatio="xMidYMid meet">
<metadata>
Created by potrace 1.14, written by Peter Selinger 2001-2017
</metadata>
<g transform="translate(0.000000,500.000000) scale(0.100000,-0.100000)"
fill="#000000" stroke="none">
<path d="M2489 4144 c-2 -85 -7 -205 -13 -329 -4 -71 -9 -179 -11 -239 -3 -60
-7 -112 -10 -114 -2 -2 -25 -6 -52 -8 -110 -9 -153 -14 -248 -33 -55 -10 -106
-21 -114 -23 -11 -2 -29 38 -65 144 -28 81 -52 144 -54 139 -2 -5 2 -29 9 -53
7 -24 13 -45 14 -48 3 -12 17 -85 17 -87 0 -1 6 -24 14 -49 8 -26 14 -50 14
-55 0 -4 -43 -24 -95 -44 -91 -35 -172 -74 -243 -117 -17 -11 -36 -18 -42 -16
-8 3 -61 76 -282 392 -46 65 -91 128 -101 140 -17 19 -17 19 -8 1 5 -11 37
-67 70 -123 34 -57 61 -107 61 -112 0 -5 3 -10 8 -12 4 -1 16 -19 26 -38 29
-53 125 -221 147 -257 l20 -32 -53 -41 c-81 -63 -157 -130 -214 -187 -55 -57
-64 -61 -91 -38 -10 8 -65 51 -123 95 l-105 82 113 -111 c61 -62 112 -116 112
-121 0 -5 -23 -40 -51 -77 -28 -37 -76 -111 -107 -163 -31 -52 -57 -96 -58
-98 -1 -2 -69 24 -150 57 -82 32 -185 74 -229 91 -44 18 -93 38 -110 45 -54
24 -140 57 -135 51 3 -3 39 -23 80 -44 142 -74 365 -190 438 -227 55 -28 72
-41 69 -54 -3 -9 -21 -60 -41 -113 -20 -54 -37 -108 -40 -120 -2 -13 -9 -42
-14 -66 -5 -23 -7 -44 -3 -46 3 -2 33 4 65 13 l60 16 26 90 c15 50 36 114 48
142 120 293 351 569 616 737 183 116 436 211 616 231 30 4 66 9 80 11 53 9
343 2 396 -10 12 -2 37 -7 55 -10 48 -7 224 -60 286 -85 430 -172 782 -545
915 -971 44 -142 39 -134 107 -153 33 -9 63 -17 65 -17 7 0 -23 121 -54 215
-17 50 -30 93 -30 97 0 4 51 31 113 61 295 141 477 231 474 234 -3 2 -103 -35
-182 -67 -11 -5 -99 -38 -195 -75 -96 -36 -185 -70 -198 -75 -37 -16 -49 -12
-63 23 -21 52 -96 176 -161 265 l-60 83 34 30 c71 67 164 157 178 175 13 15
-51 -30 -86 -61 -6 -5 -23 -19 -38 -30 -16 -11 -47 -35 -69 -52 l-42 -33 -85
83 c-46 45 -87 84 -90 87 -3 3 -27 24 -55 45 -27 22 -52 43 -55 46 -3 3 -15
11 -28 18 -24 13 -25 12 27 96 26 42 281 475 298 505 l15 25 -21 -25 c-18 -23
-208 -286 -255 -355 -72 -104 -141 -195 -147 -195 -4 0 -10 4 -13 9 -8 12
-191 105 -251 126 -27 10 -54 22 -60 25 -5 4 -22 10 -37 14 -16 3 -28 10 -28
15 0 4 11 53 25 107 14 54 27 108 29 119 3 11 9 35 15 54 6 19 7 30 2 25 -8
-9 -73 -184 -93 -252 -5 -18 -15 -35 -23 -38 -7 -3 -55 4 -107 15 -94 20 -207
35 -313 40 -17 1 -21 8 -21 44 -1 23 -4 103 -7 177 -3 74 -9 216 -13 315 -6
172 -13 234 -15 149z"/>
<path d="M2403 3242 c-26 -4 -25 6 -27 -170 0 -80 3 -137 9 -141 8 -5 211 -7
261 -2 12 1 14 295 2 306 -7 8 -205 13 -245 7z"/>
<path d="M2259 3226 c-3 -3 -27 -8 -54 -11 -28 -4 -92 -20 -142 -36 -91 -29
-93 -30 -94 -62 0 -18 -1 -67 -2 -110 -2 -71 0 -77 18 -78 101 -5 278 -2 282
5 7 11 8 284 1 291 -3 3 -7 3 -9 1z"/>
<path d="M2760 3076 c0 -123 2 -146 15 -147 8 -1 62 -1 120 -1 58 0 114 0 125
1 19 1 20 8 19 110 l-1 110 -61 20 c-76 24 -130 39 -179 46 l-38 6 0 -145z"/>
<path d="M1797 3070 c-63 -32 -193 -116 -202 -131 -7 -10 -4 -10 153 -12 60
-1 107 2 110 8 8 13 10 125 3 147 -6 16 -12 14 -64 -12z"/>
<path d="M3147 3092 c-10 -16 -3 -162 7 -163 45 -4 240 -3 253 2 12 4 -8 21
-68 61 -98 65 -186 111 -192 100z"/>
<path d="M1648 2822 c-83 -3 -88 -4 -89 -25 -3 -80 0 -260 5 -265 9 -8 268 -9
287 -1 13 6 15 29 14 143 -1 75 -5 139 -8 143 -8 7 -81 9 -209 5z"/>
<path d="M1993 2822 c-27 -4 -27 3 -24 -247 l1 -50 146 1 c80 1 148 5 151 8 8
8 10 265 2 277 -5 9 -230 17 -276 11z"/>
<path d="M2465 2820 l-89 -5 -1 -138 c0 -77 4 -141 9 -144 10 -6 233 -11 257
-5 13 3 16 23 15 142 -1 76 -4 141 -7 144 -9 9 -84 12 -184 6z"/>
<path d="M2803 2822 l-43 -3 0 -145 c0 -108 3 -144 13 -145 89 -6 250 -2 258
7 14 17 9 275 -5 280 -15 6 -168 10 -223 6z"/>
<path d="M3195 2820 l-51 -5 2 -135 c0 -74 2 -139 3 -145 1 -11 271 -12 289
-1 8 5 12 52 12 147 0 137 0 139 -22 140 -118 3 -191 3 -233 -1z"/>
<path d="M1404 2771 c-59 -65 -144 -171 -167 -210 l-18 -31 43 -1 c106 -3 179
-1 186 5 6 7 11 286 4 286 -2 0 -23 -22 -48 -49z"/>
<path d="M3552 2683 c0 -71 1 -135 4 -143 3 -12 23 -15 106 -13 126 2 118 1
118 13 0 23 -201 270 -220 270 -4 0 -7 -57 -8 -127z"/>
<path d="M1213 2422 l-61 -3 -35 -82 c-43 -101 -73 -195 -64 -203 3 -3 28 -1
54 5 26 6 64 13 83 16 19 3 46 8 60 10 46 10 65 13 110 19 68 10 74 11 86 18
6 4 10 49 9 114 l-1 106 -89 2 c-50 0 -118 0 -152 -2z"/>
<path d="M1598 2422 c-21 -2 -38 -6 -38 -10 -1 -12 -2 -176 -1 -190 1 -9 10
-12 29 -8 15 3 54 8 87 11 152 13 179 16 184 21 3 2 5 43 6 89 1 79 -1 85 -20
86 -96 3 -217 3 -247 1z"/>
<path d="M2013 2422 c-29 -2 -43 -8 -44 -18 0 -8 0 -39 0 -69 0 -30 0 -62 0
-70 1 -13 20 -15 144 -9 78 3 145 9 150 13 10 9 15 128 6 142 -6 10 -168 17
-256 11z"/>
<path d="M2388 2419 c-12 -7 -17 -109 -7 -135 6 -18 18 -19 130 -18 68 1 129
2 135 3 13 1 16 139 2 147 -13 8 -247 11 -260 3z"/>
<path d="M2818 2422 l-58 -3 0 -79 0 -80 43 -1 c23 0 86 -3 139 -5 l97 -5 -1
86 c-1 79 -3 85 -22 86 -96 3 -149 4 -198 1z"/>
<path d="M3180 2420 l-35 -5 0 -87 c0 -71 3 -88 15 -89 8 -1 26 -2 40 -4 30
-3 184 -16 220 -19 25 -1 25 -1 28 102 2 92 1 102 -15 103 -97 3 -225 3 -253
-1z"/>
<path d="M3605 2420 l-50 -5 -2 -90 c-3 -133 -4 -131 69 -140 84 -10 89 -11
243 -40 104 -20 96 -21 88 16 -12 63 -96 258 -111 260 -41 3 -198 3 -237 -1z"/>
<path d="M2228 2165 c-2 -1 -70 -5 -153 -9 -82 -3 -161 -8 -175 -10 -23 -4
-145 -15 -235 -21 -22 -2 -56 -5 -75 -8 -19 -3 -73 -11 -120 -17 -107 -14
-133 -18 -195 -30 -27 -5 -68 -13 -90 -16 -114 -17 -291 -61 -447 -111 -76
-24 -97 -36 -80 -47 35 -22 3663 -19 3685 3 4 4 2 13 -5 19 -27 22 -367 111
-528 137 -25 4 -54 9 -65 11 -86 17 -339 52 -430 60 -27 2 -68 6 -90 9 -36 4
-107 10 -265 21 -68 5 -727 13 -732 9z"/>
<path d="M3396 1783 c-110 -32 -175 -156 -143 -273 26 -98 117 -162 222 -156
74 4 103 15 144 56 50 51 69 96 67 165 -3 69 -13 98 -52 145 -54 63 -149 89
-238 63z m123 -130 c48 -39 39 -147 -14 -171 -29 -13 -74 -6 -97 15 -20 18
-33 73 -24 106 15 61 88 88 135 50z"/>
<path d="M4293 1788 c-57 -9 -80 -23 -103 -61 -24 -39 -25 -78 -4 -123 12 -25
30 -40 73 -59 92 -42 106 -50 109 -67 5 -25 -26 -30 -45 -8 -14 16 -30 20 -85
20 -40 0 -68 -4 -68 -10 0 -31 32 -80 66 -101 53 -33 178 -34 221 -3 64 47 78
131 31 182 -13 13 -56 39 -95 58 -43 19 -73 39 -73 48 0 25 22 30 39 10 13
-15 30 -19 84 -20 72 0 74 2 57 53 -23 64 -109 98 -207 81z"/>
<path d="M140 1775 c0 -5 5 -30 11 -55 6 -25 12 -52 14 -60 35 -161 70 -296
77 -301 5 -3 43 -5 85 -5 l77 1 16 75 c8 41 16 78 17 83 1 4 5 23 9 43 3 19 8
33 10 31 2 -2 13 -48 24 -103 11 -54 23 -106 25 -115 4 -12 21 -15 88 -15 l82
0 17 76 c10 41 20 84 22 95 2 11 16 70 30 132 14 61 26 116 26 121 0 10 -125
10 -135 0 -7 -7 -8 -14 -31 -173 -12 -86 -20 -80 -44 37 -12 62 -26 120 -31
129 -8 15 -52 19 -130 11 -15 -2 -24 -22 -35 -77 -18 -98 -37 -166 -44 -159
-5 5 -11 35 -15 67 -3 31 -9 78 -14 102 -5 25 -6 45 -3 45 2 0 -1 7 -8 15 -14
17 -140 17 -140 0z"/>
<path d="M961 1780 c-6 -3 -34 -69 -62 -146 -28 -76 -62 -168 -75 -203 -13
-36 -21 -67 -18 -70 3 -3 33 -7 66 -8 59 -1 60 -1 74 33 l14 34 70 0 c67 0 71
-1 83 -27 6 -16 16 -31 20 -34 17 -12 127 -7 127 5 0 18 -140 400 -151 411
-11 11 -132 15 -148 5z m103 -237 c7 -21 4 -23 -33 -23 -39 0 -39 1 -31 28 4
15 13 41 20 57 l12 30 13 -35 c7 -19 15 -45 19 -57z"/>
<path d="M1310 1780 c-7 -4 -10 -73 -8 -216 l3 -209 65 0 65 0 0 72 c1 40 4
76 9 80 4 4 31 8 59 9 l52 1 0 49 0 49 -50 3 c-50 3 -65 13 -65 44 0 15 12 18
82 20 l83 3 0 50 0 50 -142 1 c-78 0 -147 -2 -153 -6z"/>
<path d="M1662 1781 c-6 -5 -9 -367 -3 -418 1 -7 22 -11 64 -10 l62 2 3 81 3
81 47 -2 c75 -2 84 9 73 97 -1 5 -18 7 -38 6 -77 -3 -83 0 -83 32 l0 30 84 0
84 0 4 50 c1 28 1 51 -2 51 -17 5 -291 4 -298 0z"/>
<path d="M2010 1569 l0 -216 132 1 132 1 1 48 1 47 -63 0 c-35 0 -64 3 -65 8
0 4 -2 72 -4 152 -1 80 -3 152 -3 161 -1 13 -13 16 -66 15 l-65 0 0 -217z"/>
<path d="M2330 1780 c-7 -4 -10 -75 -8 -216 l3 -209 143 -1 142 0 0 52 0 52
-71 0 c-75 0 -81 3 -85 29 -5 32 14 41 76 37 l60 -4 0 50 c0 33 -4 50 -12 51
-7 1 -38 2 -68 3 -51 1 -55 3 -55 26 0 24 2 25 78 28 l78 3 -3 52 -3 52 -132
1 c-73 0 -137 -2 -143 -6z"/>
<path d="M2808 1783 c-16 -4 -18 -23 -18 -214 0 -115 3 -210 8 -210 43 -8 122
-4 125 5 2 6 4 44 3 84 -1 70 -1 72 24 73 29 2 80 2 96 0 7 -1 12 -22 12 -53
0 -29 0 -67 1 -84 l1 -31 65 1 c60 1 65 3 66 24 1 29 1 390 0 400 -1 12 -120
11 -128 -1 -3 -6 -6 -41 -6 -79 l1 -69 -67 3 -66 3 0 75 0 75 -50 1 c-28 1
-58 -1 -67 -3z"/>
<path d="M3744 1778 c-8 -12 -5 -273 2 -296 31 -92 76 -126 173 -129 102 -2
182 51 197 134 11 58 10 284 -1 291 -5 4 -36 7 -67 8 -67 0 -61 17 -59 -160 1
-106 -9 -139 -48 -149 -12 -3 -31 3 -46 14 -24 19 -25 25 -27 157 l-3 137 -58
1 c-32 0 -60 -3 -63 -8z"/>
<path d="M4569 1701 c-1 -171 -1 -207 0 -276 l1 -71 140 0 c90 0 141 4 141 11
1 5 2 28 3 50 l1 40 -75 5 -75 5 0 30 0 30 65 0 65 0 0 50 0 50 -65 0 c-64 0
-65 0 -66 28 l-1 27 73 0 c52 0 74 4 75 13 1 6 2 26 4 42 1 17 0 35 -2 41 -3
8 -50 11 -144 11 l-139 -1 -1 -85z"/>
<path d="M2123 1209 c-34 -13 -48 -46 -29 -73 14 -22 13 -25 -15 -52 -16 -15
-29 -35 -29 -44 0 -23 37 -60 60 -61 11 -1 30 -2 43 -3 12 -2 37 4 56 11 26
10 37 10 48 1 20 -16 41 5 24 25 -8 10 -9 22 -1 41 8 21 7 28 -6 33 -8 3 -21
-2 -29 -13 -13 -18 -14 -18 -39 5 l-25 24 24 19 c27 21 33 59 13 76 -18 15
-69 21 -95 11z m63 -34 c7 -18 -13 -45 -33 -45 -17 0 -27 24 -19 45 7 20 45
19 52 0z m2 -129 c27 -24 14 -36 -39 -36 -51 0 -65 20 -38 54 23 29 24 28 77
-18z"/>
<path d="M2601 1199 c-92 -41 -94 -161 -2 -206 29 -15 55 -20 91 -17 75 5 90
16 90 69 0 24 -5 47 -10 50 -18 11 -38 -14 -35 -45 2 -26 -1 -30 -31 -36 -69
-13 -124 27 -124 91 0 58 89 94 152 61 22 -11 29 -12 37 -2 8 9 6 18 -8 30
-27 25 -111 27 -160 5z"/>
<path d="M1618 1202 c-29 -6 -30 -228 -1 -239 19 -7 33 13 33 49 0 25 3 27 37
23 26 -2 45 -12 63 -33 24 -28 70 -49 70 -32 0 5 -12 22 -26 39 l-25 31 26 22
c37 32 38 83 1 115 -15 12 -32 23 -39 24 -44 3 -126 4 -139 1z m145 -51 c32
-41 4 -77 -62 -80 -45 -2 -50 0 -53 21 -2 13 -1 36 1 51 3 27 6 28 52 26 30
-2 54 -9 62 -18z"/>
<path d="M3069 1153 c-1 -80 -1 -155 0 -171 1 -8 10 -12 24 -10 18 2 22 9 21
36 -1 31 1 32 37 32 31 0 42 -6 60 -31 21 -30 57 -51 72 -42 4 3 -4 20 -18 39
l-27 35 26 24 c40 37 32 100 -17 126 -12 7 -57 14 -99 16 l-78 4 -1 -58z m159
5 c7 -7 12 -24 12 -39 0 -31 -32 -47 -90 -45 -34 1 -35 2 -36 49 l-1 47 51 0
c29 0 57 -5 64 -12z"/>
<path d="M3570 1080 c0 -119 0 -120 23 -120 23 0 24 2 25 98 1 122 -3 142 -28
142 -19 0 -20 -7 -20 -120z"/>
<path d="M1117 1075 c-31 -63 -57 -119 -57 -124 0 -4 11 -6 25 -3 16 3 27 13
31 28 3 13 7 24 8 25 0 0 33 3 71 5 70 5 70 5 88 -26 12 -19 25 -30 35 -27 23
4 19 16 -41 134 -45 89 -55 103 -77 103 -22 0 -32 -14 -83 -115z m110 21 c11
-25 19 -47 15 -50 -6 -7 -92 -8 -92 -1 0 10 44 95 49 95 4 0 16 -20 28 -44z"/>
<path d="M3910 1070 l0 -120 28 -1 c143 -5 157 -4 157 11 0 11 -15 16 -60 18
-33 2 -64 7 -69 12 -5 5 -9 52 -9 105 1 94 0 95 -23 95 -24 0 -24 0 -24 -120z"/>
<path d="M598 1172 c-16 -3 -18 -17 -18 -123 0 -124 -1 -122 45 -121 129 3
184 17 186 45 0 6 2 22 5 34 2 14 -4 27 -18 37 -15 11 -18 19 -11 28 22 28 21
56 -3 79 -20 19 -36 23 -96 24 -40 0 -81 -1 -90 -3z m153 -42 c1 -5 2 -16 3
-22 3 -22 -28 -37 -76 -38 -49 0 -58 8 -50 47 4 21 10 23 63 23 33 0 60 -4 60
-10z m-1 -100 c25 -13 26 -42 3 -55 -21 -12 -123 -14 -123 -2 0 66 -3 62 50
65 28 1 59 -2 70 -8z"/>
<path d="M4360 1056 l0 -126 48 -1 c26 0 68 -2 95 -4 40 -2 47 0 47 16 0 20
-6 21 -102 22 -37 1 -38 1 -39 41 -4 181 -2 171 -26 174 -23 3 -23 2 -23 -122z"/>
<path d="M338 1074 c-3 -2 -232 -15 -315 -18 -13 -1 -21 -5 -19 -11 2 -5 8 -9
13 -8 5 1 72 5 149 9 76 4 153 8 169 9 17 1 45 3 64 4 19 0 32 4 29 7 -6 6
-86 13 -90 8z"/>
<path d="M4700 1069 c0 -10 -3 -10 70 -14 162 -11 230 -12 230 -4 0 5 -15 9
-32 10 -18 1 -55 3 -83 5 -141 10 -185 11 -185 3z"/>
</g>
</svg>
